# xmcd
#
# Track frame offsets: 
#        150
#        19353
#        34246
#        49201
#        65453
#        80674
#        97805
#        110808
#        126287
#        141650
#        157945
#
# Disc length: 2372 seconds
#
# Revision: 1
# Processed by: cddbd v1.5.2PL0 Copyright (c) Steve Scherf et al.
# Submitted via: ExactAudioCopyFreeDBPlugin 1.0
#
DISCID=9d09420b
DTITLE=Luke Stricklin - American By God's Amazing Grace
DYEAR=2005
DGENRE=Country
TTITLE0=American By God's Amazing Grace
TTITLE1=Does That Make Me Bad?
TTITLE2=12 Hour Days
TTITLE3=Gulf Of Mexico
TTITLE4=Drinkin' Thinkin'
TTITLE5=Slow It Down
TTITLE6=Fixer Upper
TTITLE7=Almost Persuaded
TTITLE8=Nine Tenths Of The Law
TTITLE9=Things I'm Missin'
TTITLE10=American By God's Amazing Grace (Original Version Recorded In
TTITLE10=Baghdad, Iraq)
EXTD=Jesus Loves You
EXTT0=
EXTT1=
EXTT2=
EXTT3=
EXTT4=
EXTT5=
EXTT6=
EXTT7=
EXTT8=
EXTT9=
EXTT10=
PLAYORDER=
